<?xml version="1.0" encoding="UTF-8"?>
<svg xmlns="http://www.w3.org/2000/svg" xmlns:xlink="http://www.w3.org/1999/xlink" width="96px" height="96px" viewBox="0 0 96 96" version="1.1">
<g id="surface1">
<path style=" stroke:none;fill-rule:nonzero;fill:rgb(81.960784%,81.960784%,81.960784%);fill-opacity:1;" d="M 10.597656 61.183594 L 32.4375 29.835938 C 32.4375 29.835938 32.851562 29.257812 33.246094 29.363281 L 35.433594 21.304688 L 35.515625 20.972656 C 35.515625 20.972656 31.175781 19.539062 27.191406 21.433594 L 0.429688 58.351562 Z M 36.652344 68.457031 L 33.710938 30.175781 C 33.710938 30.175781 33.640625 29.457031 33.246094 29.351562 L 35.433594 21.292969 L 35.515625 20.972656 C 35.515625 20.972656 39.976562 21.996094 42.453125 25.675781 L 46.820312 71.300781 Z M 36.652344 68.457031 "/>
<path style=" stroke:none;fill-rule:nonzero;fill:rgb(81.960784%,81.960784%,81.960784%);fill-opacity:1;" d="M 59.324219 27.625 L 62.277344 65.90625 C 62.277344 65.90625 62.347656 66.625 62.730469 66.730469 L 60.542969 74.789062 L 60.460938 75.121094 C 60.460938 75.121094 56 74.085938 53.535156 70.40625 L 49.15625 24.78125 Z M 85.382812 34.910156 L 63.539062 66.273438 C 63.539062 66.273438 63.125 66.847656 62.730469 66.742188 L 60.542969 74.800781 L 60.460938 75.121094 C 60.460938 75.121094 64.804688 76.554688 68.785156 74.671875 L 95.546875 37.753906 Z M 85.382812 34.910156 "/>
<path style=" stroke:none;fill-rule:nonzero;fill:rgb(81.960784%,81.960784%,81.960784%);fill-opacity:1;" d="M 32.773438 29.375 C 32.773438 29.375 33.269531 29.035156 33.582031 29.492188 L 34.046875 28.90625 L 34.507812 26.789062 L 35.78125 21.152344 L 35.203125 20.914062 L 34.742188 22.089844 Z M 32.773438 29.375 "/>
<path style=" stroke:none;fill-rule:nonzero;fill:rgb(81.960784%,81.960784%,81.960784%);fill-opacity:1;" d="M 32.308594 28.4375 L 33.003906 29.257812 C 33.003906 29.257812 33.398438 29.316406 33.46875 29.375 L 33.582031 29.257812 L 33.121094 28.789062 Z M 32.308594 28.4375 "/>
<path style=" stroke:none;fill-rule:nonzero;fill:rgb(81.960784%,81.960784%,81.960784%);fill-opacity:1;" d="M 60.332031 75.085938 L 60.796875 75.085938 L 61.722656 73.675781 L 62.996094 66.859375 L 62.53125 66.742188 Z M 60.332031 75.085938 "/>
</g>
</svg>
